<svg width="20" height="20" viewBox="0 0 20 20" fill="none" xmlns="http://www.w3.org/2000/svg">
<path d="M14.314 7.21646C15.6001 8.13911 17.1757 8.68197 18.8774 8.68197V5.39575C18.5553 5.39582 18.2341 5.36212 17.919 5.29512V7.88185C16.2175 7.88185 14.6421 7.33899 13.3557 6.41641V13.1226C13.3557 16.4774 10.6457 19.1968 7.30306 19.1968C6.05583 19.1968 4.89658 18.8184 3.93359 18.1694C5.03269 19.2973 6.56546 19.9969 8.2612 19.9969C11.6041 19.9969 14.3141 17.2775 14.3141 13.9226V7.21646H14.314V7.21646ZM15.4962 3.90107C14.8389 3.18043 14.4074 2.24914 14.314 1.21955V0.796875H13.4058C13.6344 2.10548 14.4142 3.22347 15.4962 3.90107ZM6.04783 15.5951C5.6806 15.1119 5.48215 14.5207 5.48304 13.9129C5.48304 12.3786 6.72255 11.1345 8.25176 11.1345C8.53676 11.1344 8.82004 11.1782 9.09164 11.2647V7.90505C8.77424 7.8614 8.4539 7.84286 8.13371 7.84966V10.4647C7.86191 10.3782 7.57848 10.3342 7.29342 10.3345C5.76421 10.3345 4.52477 11.5785 4.52477 13.113C4.52477 14.1981 5.14432 15.1375 6.04783 15.5951Z" fill="#FF004F"/>
<path d="M13.3551 6.41634C14.6416 7.33892 16.217 7.88178 17.9185 7.88178V5.29506C16.9687 5.09202 16.1279 4.59391 15.4957 3.90107C14.4136 3.2234 13.6339 2.10541 13.4053 0.796875H11.0198V13.9224C11.0144 15.4526 9.77704 16.6916 8.25111 16.6916C7.3519 16.6916 6.55304 16.2614 6.04711 15.5951C5.14366 15.1375 4.52412 14.198 4.52412 13.1131C4.52412 11.5787 5.76355 10.3346 7.29277 10.3346C7.58576 10.3346 7.86815 10.3804 8.13305 10.4647V7.84973C4.8491 7.91782 2.20801 10.6107 2.20801 13.9225C2.20801 15.5757 2.8657 17.0744 3.93314 18.1695C4.89613 18.8184 6.05538 19.1969 7.30261 19.1969C10.6453 19.1969 13.3552 16.4774 13.3552 13.1226V6.41634H13.3551Z" fill="black"/>
<path d="M17.9188 5.29817V4.59874C17.0623 4.60004 16.2226 4.35932 15.496 3.90411C16.1392 4.61089 16.9863 5.09822 17.9188 5.29817ZM13.4056 0.799986C13.3838 0.674926 13.367 0.549042 13.3554 0.422678V0H10.0617V13.1257C10.0564 14.6556 8.8191 15.8946 7.29303 15.8946C6.845 15.8946 6.42199 15.7879 6.04737 15.5983C6.55331 16.2645 7.35216 16.6946 8.25137 16.6946C9.77717 16.6946 11.0148 15.4558 11.0201 13.9256V0.799986H13.4056ZM8.13345 7.85284V7.10824C7.85823 7.07049 7.58076 7.05155 7.30294 7.05169C3.95993 7.05162 1.25 9.77116 1.25 13.1257C1.25 15.2288 2.31505 17.0822 3.93347 18.1725C2.86603 17.0775 2.20834 15.5787 2.20834 13.9255C2.20834 10.6138 4.84936 7.92093 8.13345 7.85284Z" fill="#00F2EA"/>
</svg>
