<svg width="20" height="20" viewBox="0 0 20 20" fill="none" xmlns="http://www.w3.org/2000/svg">
<g clip-path="url(#clip0_46_187)">
<path d="M20 10C20 4.4772 15.5228 0 10 0C4.4772 0 0 4.4772 0 10C0 14.6896 3.2288 18.6248 7.5844 19.7056V13.056H5.5224V10H7.5844V8.6832C7.5844 5.2796 9.1248 3.702 12.4664 3.702C13.1 3.702 14.1932 3.8264 14.6404 3.9504V6.7204C14.4044 6.6956 13.9944 6.6832 13.4852 6.6832C11.8456 6.6832 11.212 7.3044 11.212 8.9192V10H14.4784L13.9172 13.056H11.212V19.9268C16.1636 19.3288 20.0004 15.1128 20.0004 10H20Z" fill="#0866FF"/>
<path d="M13.9173 13.0571L14.4785 10.0011H11.2121V8.92032C11.2121 7.30552 11.8457 6.68432 13.4853 6.68432C13.9945 6.68432 14.4045 6.69672 14.6405 6.72152V3.95152C14.1933 3.82712 13.1001 3.70312 12.4665 3.70312C9.12486 3.70312 7.58446 5.28073 7.58446 8.68432V10.0011H5.52246V13.0571H7.58446V19.7067C8.35806 19.8987 9.16726 20.0011 10.0001 20.0011C10.4101 20.0011 10.8145 19.9759 11.2117 19.9279V13.0571H13.9169H13.9173Z" fill="white"/>
</g>
<defs>
<clipPath id="clip0_46_187">
<rect width="20" height="20" fill="white"/>
</clipPath>
</defs>
</svg>
