<svg width="35" height="35" viewBox="0 0 35 35" fill="none" xmlns="http://www.w3.org/2000/svg">
<path d="M5.30852 27.457C4.91799 27.8475 4.91799 28.4806 5.30852 28.8712C5.69904 29.2617 6.33221 29.2617 6.72273 28.8712L5.30852 27.457ZM12.5781 21.6016L13.2852 20.8945C12.8947 20.5039 12.2615 20.5039 11.871 20.8945L12.5781 21.6016ZM15.8594 24.8828L15.1523 25.5899C15.5428 25.9804 16.176 25.9804 16.5665 25.5899L15.8594 24.8828ZM23.2422 17.5L23.9493 16.7929C23.5588 16.4024 22.9256 16.4024 22.5351 16.7929L23.2422 17.5ZM29.0976 24.7696C29.4881 25.1601 30.1213 25.1601 30.5118 24.7696C30.9023 24.3791 30.9023 23.7459 30.5118 23.3554L29.0976 24.7696ZM6.72273 28.8712L13.2852 22.3087L11.871 20.8945L5.30852 27.457L6.72273 28.8712ZM11.871 22.3087L15.1523 25.5899L16.5665 24.1757L13.2852 20.8945L11.871 22.3087ZM16.5665 25.5899L23.9493 18.2071L22.5351 16.7929L15.1523 24.1757L16.5665 25.5899ZM22.5351 18.2071L29.0976 24.7696L30.5118 23.3554L23.9493 16.7929L22.5351 18.2071ZM9.29688 5.375H25.7031V3.375H9.29688V5.375ZM29.625 9.29688V25.7031H31.625V9.29688H29.625ZM25.7031 29.625H9.29688V31.625H25.7031V29.625ZM5.375 25.7031V9.29688H3.375V25.7031H5.375ZM9.29688 29.625C7.13088 29.625 5.375 27.8691 5.375 25.7031H3.375C3.375 28.9737 6.02631 31.625 9.29688 31.625V29.625ZM29.625 25.7031C29.625 27.8691 27.8691 29.625 25.7031 29.625V31.625C28.9737 31.625 31.625 28.9737 31.625 25.7031H29.625ZM25.7031 5.375C27.8691 5.375 29.625 7.13088 29.625 9.29688H31.625C31.625 6.02631 28.9737 3.375 25.7031 3.375V5.375ZM9.29688 3.375C6.02631 3.375 3.375 6.02631 3.375 9.29688H5.375C5.375 7.13088 7.13088 5.375 9.29688 5.375V3.375ZM13.2188 11.7578C13.2188 12.5647 12.5647 13.2188 11.7578 13.2188V15.2188C13.6692 15.2188 15.2188 13.6692 15.2188 11.7578H13.2188ZM11.7578 13.2188C10.951 13.2188 10.2969 12.5647 10.2969 11.7578H8.29688C8.29688 13.6692 9.84639 15.2188 11.7578 15.2188V13.2188ZM10.2969 11.7578C10.2969 10.951 10.951 10.2969 11.7578 10.2969V8.29688C9.84639 8.29688 8.29688 9.84639 8.29688 11.7578H10.2969ZM11.7578 10.2969C12.5647 10.2969 13.2188 10.951 13.2188 11.7578H15.2188C15.2188 9.84639 13.6692 8.29688 11.7578 8.29688V10.2969Z" fill="#0E1005"/>
</svg>
