<svg width="35" height="35" viewBox="0 0 35 35" fill="none" xmlns="http://www.w3.org/2000/svg">
<path d="M30.625 14.5859C30.625 24.7943 17.5 33.5443 17.5 33.5443C17.5 33.5443 4.375 24.7943 4.375 14.5859C4.375 11.105 5.75781 7.76658 8.21922 5.30516C10.6806 2.84375 14.019 1.46094 17.5 1.46094C20.981 1.46094 24.3194 2.84375 26.7808 5.30516C29.2422 7.76658 30.625 11.105 30.625 14.5859Z" stroke="black" stroke-width="2" stroke-linecap="round" stroke-linejoin="round"/>
<path d="M17.5 18.9609C19.9162 18.9609 21.875 17.0022 21.875 14.5859C21.875 12.1697 19.9162 10.2109 17.5 10.2109C15.0838 10.2109 13.125 12.1697 13.125 14.5859C13.125 17.0022 15.0838 18.9609 17.5 18.9609Z" stroke="black" stroke-width="2" stroke-linecap="round" stroke-linejoin="round"/>
</svg>
