<svg width="35" height="35" viewBox="0 0 35 35" fill="none" xmlns="http://www.w3.org/2000/svg">
<path d="M21.4375 9.19021C21.1703 9.46281 21.0206 9.82932 21.0206 10.211C21.0206 10.5928 21.1703 10.9593 21.4375 11.2319L23.7708 13.5652C24.0434 13.8324 24.4099 13.9821 24.7916 13.9821C25.1734 13.9821 25.5399 13.8324 25.8125 13.5652L31.3104 8.06729C32.0437 9.68777 32.2657 11.4933 31.9469 13.2431C31.6281 14.993 30.7835 16.6041 29.5258 17.8619C28.2681 19.1196 26.6569 19.9641 24.9071 20.283C23.1572 20.6018 21.3517 20.3798 19.7312 19.6465L9.65414 29.7235C9.07398 30.3037 8.28711 30.6296 7.46664 30.6296C6.64617 30.6296 5.8593 30.3037 5.27914 29.7235C4.69898 29.1434 4.37305 28.3565 4.37305 27.536C4.37305 26.7156 4.69898 25.9287 5.27914 25.3485L15.3562 15.2715C14.6229 13.651 14.4009 11.8455 14.7197 10.0956C15.0386 8.34575 15.8831 6.7346 17.1408 5.47688C18.3985 4.21917 20.0097 3.37462 21.7596 3.05579C23.5094 2.73696 25.3149 2.95899 26.9354 3.69229L21.4521 9.17562L21.4375 9.19021Z" stroke="black" stroke-width="2" stroke-linecap="round" stroke-linejoin="round"/>
</svg>
